<svg width="89" height="89" viewBox="0 0 89 89" fill="none" xmlns="http://www.w3.org/2000/svg">
<rect width="89" height="89" rx="26" fill="#FFBB0E"/>
<circle cx="61" cy="34" r="3" fill="#1C1C1E"/>
<circle cx="28" cy="34" r="3" fill="#1C1C1E"/>
<path d="M40.1565 37C39.5178 37 38.9888 37.5225 39.1111 38.1494C39.1876 38.5412 39.3032 38.9254 39.4567 39.2961C39.7583 40.0241 40.2002 40.6855 40.7574 41.2426C41.3145 41.7998 41.9759 42.2417 42.7039 42.5433C43.4319 42.8448 44.2121 43 45 43C45.7879 43 46.5681 42.8448 47.2961 42.5433C48.0241 42.2417 48.6855 41.7998 49.2426 41.2426C49.7998 40.6855 50.2417 40.0241 50.5433 39.2961C50.6968 38.9254 50.8124 38.5412 50.8889 38.1494C51.0112 37.5225 50.4822 37 49.8435 37C49.2048 37 48.7042 37.5301 48.5071 38.1376C48.4772 38.2299 48.4436 38.3211 48.4063 38.411C48.2211 38.8583 47.9495 39.2647 47.6071 39.6071C47.2647 39.9495 46.8583 40.2211 46.411 40.4063C45.9636 40.5916 45.4842 40.687 45 40.687C44.5158 40.687 44.0364 40.5916 43.589 40.4063C43.1417 40.2211 42.7353 39.9495 42.3929 39.6071C42.0505 39.2647 41.7789 38.8583 41.5937 38.411C41.5564 38.3211 41.5228 38.2299 41.4929 38.1376C41.2958 37.5301 40.7952 37 40.1565 37Z" fill="black"/>
</svg>
