<svg width="26" height="26" viewBox="0 0 26 26" fill="none" xmlns="http://www.w3.org/2000/svg">
<path d="M12.9375 20.5C13.375 20.5 13.7448 20.349 14.0469 20.0469C14.349 19.7448 14.5 19.375 14.5 18.9375C14.5 18.5 14.349 18.1302 14.0469 17.8281C13.7448 17.526 13.375 17.375 12.9375 17.375C12.5 17.375 12.1302 17.526 11.8281 17.8281C11.526 18.1302 11.375 18.5 11.375 18.9375C11.375 19.375 11.526 19.7448 11.8281 20.0469C12.1302 20.349 12.5 20.5 12.9375 20.5ZM11.8125 15.6875H14.125C14.125 15 14.2031 14.4583 14.3594 14.0625C14.5156 13.6667 14.9583 13.125 15.6875 12.4375C16.2292 11.8958 16.6562 11.3802 16.9688 10.8906C17.2812 10.401 17.4375 9.8125 17.4375 9.125C17.4375 7.95833 17.0104 7.0625 16.1562 6.4375C15.3021 5.8125 14.2917 5.5 13.125 5.5C11.9375 5.5 10.974 5.8125 10.2344 6.4375C9.49479 7.0625 8.97917 7.8125 8.6875 8.6875L10.75 9.5C10.8542 9.125 11.0885 8.71875 11.4531 8.28125C11.8177 7.84375 12.375 7.625 13.125 7.625C13.7917 7.625 14.2917 7.80729 14.625 8.17188C14.9583 8.53646 15.125 8.9375 15.125 9.375C15.125 9.79167 15 10.1823 14.75 10.5469C14.5 10.9115 14.1875 11.25 13.8125 11.5625C12.8958 12.375 12.3333 12.9896 12.125 13.4062C11.9167 13.8229 11.8125 14.5833 11.8125 15.6875ZM13 25.5C11.2708 25.5 9.64583 25.1719 8.125 24.5156C6.60417 23.8594 5.28125 22.9688 4.15625 21.8438C3.03125 20.7188 2.14062 19.3958 1.48438 17.875C0.828125 16.3542 0.5 14.7292 0.5 13C0.5 11.2708 0.828125 9.64583 1.48438 8.125C2.14062 6.60417 3.03125 5.28125 4.15625 4.15625C5.28125 3.03125 6.60417 2.14062 8.125 1.48438C9.64583 0.828125 11.2708 0.5 13 0.5C14.7292 0.5 16.3542 0.828125 17.875 1.48438C19.3958 2.14062 20.7188 3.03125 21.8438 4.15625C22.9688 5.28125 23.8594 6.60417 24.5156 8.125C25.1719 9.64583 25.5 11.2708 25.5 13C25.5 14.7292 25.1719 16.3542 24.5156 17.875C23.8594 19.3958 22.9688 20.7188 21.8438 21.8438C20.7188 22.9688 19.3958 23.8594 17.875 24.5156C16.3542 25.1719 14.7292 25.5 13 25.5ZM13 23C15.7917 23 18.1562 22.0312 20.0938 20.0938C22.0312 18.1562 23 15.7917 23 13C23 10.2083 22.0312 7.84375 20.0938 5.90625C18.1562 3.96875 15.7917 3 13 3C10.2083 3 7.84375 3.96875 5.90625 5.90625C3.96875 7.84375 3 10.2083 3 13C3 15.7917 3.96875 18.1562 5.90625 20.0938C7.84375 22.0312 10.2083 23 13 23Z" fill="#1F1F1F"/>
</svg>
