<svg width="89" height="89" viewBox="0 0 89 89" fill="none" xmlns="http://www.w3.org/2000/svg">
<rect width="89" height="89" rx="26" fill="#FFBB0E"/>
<circle cx="61" cy="53" r="3" fill="#1C1C1E"/>
<circle cx="28" cy="53" r="3" fill="#1C1C1E"/>
<path d="M49.8435 61C50.4822 61 51.0112 60.4775 50.8889 59.8506C50.8124 59.4588 50.6968 59.0746 50.5433 58.7039C50.2417 57.9759 49.7998 57.3145 49.2426 56.7574C48.6855 56.2002 48.0241 55.7583 47.2961 55.4567C46.5681 55.1552 45.7879 55 45 55C44.2121 55 43.4319 55.1552 42.7039 55.4567C41.9759 55.7583 41.3145 56.2002 40.7574 56.7574C40.2002 57.3145 39.7583 57.9759 39.4567 58.7039C39.3032 59.0746 39.1876 59.4588 39.1111 59.8506C38.9888 60.4775 39.5178 61 40.1565 61C40.7952 61 41.2958 60.4699 41.4929 59.8624C41.5228 59.7701 41.5564 59.6789 41.5937 59.589C41.7789 59.1417 42.0505 58.7353 42.3929 58.3929C42.7353 58.0505 43.1417 57.7789 43.589 57.5937C44.0364 57.4084 44.5158 57.313 45 57.313C45.4842 57.313 45.9636 57.4084 46.411 57.5937C46.8583 57.7789 47.2647 58.0505 47.6071 58.3929C47.9495 58.7353 48.2211 59.1417 48.4063 59.589C48.4436 59.6789 48.4772 59.7701 48.5071 59.8624C48.7042 60.4699 49.2048 61 49.8435 61Z" fill="black"/>
<circle cx="28" cy="69" r="4" fill="white"/>
<path d="M28 59L31.5939 67.0862C31.8616 67.6887 32 68.3407 32 69L27.5 71.5L24.5 69.5L24 69C24 68.3407 24.1384 67.6887 24.4061 67.0862L28 59Z" fill="white"/>
</svg>
